<svg width="32" height="32" viewBox="0 0 32 32" fill="none" xmlns="http://www.w3.org/2000/svg">
<path d="M23.6596 8.09999C23.5659 8.00686 23.4392 7.95459 23.3071 7.95459C23.175 7.95459 23.0483 8.00686 22.9546 8.09999L16.2146 14.635C16.1191 14.7278 16.0644 14.8548 16.0625 14.9879C16.0607 15.1211 16.1118 15.2495 16.2046 15.345C16.2974 15.4405 16.4244 15.4952 16.5575 15.497C16.6907 15.4989 16.8191 15.4478 16.9146 15.355L23.6496 8.80499C23.7441 8.71263 23.7981 8.58665 23.8 8.45455C23.8019 8.32245 23.7514 8.19498 23.6596 8.09999Z" fill="black"/>
<path d="M27.3209 13.2H26.5359C26.4021 13.2005 26.2716 13.1587 26.1629 13.0806C26.0543 13.0024 25.9731 12.892 25.9309 12.765C25.7012 12.0817 25.403 11.4233 25.0409 10.8L28.1209 7.75499C28.5695 7.30592 28.8214 6.69718 28.8214 6.06249C28.8214 5.42779 28.5695 4.81905 28.1209 4.36999L27.3309 3.60499C26.8826 3.1612 26.2768 2.9131 25.6459 2.91499C25.3323 2.91464 25.0218 2.97681 24.7325 3.09786C24.4432 3.21891 24.1809 3.39641 23.9609 3.61999L20.8609 6.67999C20.2891 6.3686 19.692 6.106 19.0759 5.89499C18.9494 5.85265 18.8397 5.77126 18.7624 5.66253C18.6851 5.55381 18.6443 5.42336 18.6459 5.28999V4.49999C18.6446 4.06457 18.4707 3.64744 18.1624 3.34003C17.854 3.03261 17.4364 2.85998 17.0009 2.85999H14.1959C13.7605 2.85998 13.3429 3.03261 13.0345 3.34003C12.7262 3.64744 12.5523 4.06457 12.5509 4.49999V5.28499C12.5514 5.4188 12.5096 5.54935 12.4315 5.658C12.3534 5.76665 12.2429 5.84784 12.1159 5.88999C11.6423 6.05143 11.1797 6.24351 10.7309 6.46499C10.6118 6.52302 10.4776 6.54264 10.3468 6.52115C10.2161 6.49965 10.0952 6.4381 10.0009 6.34499L9.45094 5.78999C9.141 5.48282 8.7223 5.31049 8.28594 5.31049C7.84958 5.31049 7.43087 5.48282 7.12094 5.78999L5.15094 7.75999C4.99764 7.9128 4.87601 8.09437 4.79302 8.29429C4.71004 8.4942 4.66732 8.70853 4.66732 8.92499C4.66732 9.14144 4.71004 9.35577 4.79302 9.55568C4.87601 9.7556 4.99764 9.93717 5.15094 10.09L5.70094 10.645C5.79595 10.7391 5.85909 10.8606 5.88151 10.9924C5.90393 11.1242 5.8845 11.2598 5.82594 11.38C5.6031 11.8274 5.41262 12.2903 5.25594 12.765C5.21221 12.892 5.12993 13.0022 5.02057 13.0801C4.91122 13.1581 4.78025 13.2 4.64594 13.2H3.85594C3.41966 13.2 3.00124 13.3733 2.69275 13.6818C2.38425 13.9903 2.21094 14.4087 2.21094 14.845V17.63C2.21094 18.0663 2.38425 18.4847 2.69275 18.7932C3.00124 19.1017 3.41966 19.275 3.85594 19.275H4.64094C4.77475 19.2745 4.9053 19.3163 5.01395 19.3944C5.1226 19.4725 5.20379 19.583 5.24594 19.71C5.40739 20.1836 5.59946 20.6463 5.82094 21.095C5.8795 21.2152 5.89893 21.3507 5.87651 21.4826C5.85409 21.6144 5.79095 21.7359 5.69594 21.83L5.14594 22.385C4.98855 22.5356 4.86315 22.7164 4.77724 22.9165C4.69133 23.1167 4.64667 23.3322 4.64594 23.55C4.64808 23.7676 4.69337 23.9826 4.7792 24.1826C4.86503 24.3826 4.98968 24.5635 5.14594 24.715L7.11594 26.685C7.42587 26.9922 7.84458 27.1645 8.28094 27.1645C8.7173 27.1645 9.136 26.9922 9.44594 26.685L10.0009 26.13C10.0941 26.0352 10.2144 25.9718 10.3452 25.9485C10.476 25.9252 10.6108 25.9432 10.7309 26C11.1788 26.222 11.6416 26.4124 12.1159 26.57C12.2429 26.6137 12.3531 26.696 12.4311 26.8053C12.5091 26.9147 12.551 27.0457 12.5509 27.18V27.965C12.5509 28.4013 12.7242 28.8197 13.0327 29.1282C13.3412 29.4367 13.7597 29.61 14.1959 29.61H17.0009C17.2174 29.6106 17.4318 29.5686 17.632 29.4862C17.8321 29.4038 18.0141 29.2828 18.1674 29.1299C18.3206 28.9771 18.4423 28.7956 18.5252 28.5957C18.6082 28.3957 18.6509 28.1814 18.6509 27.965V27.185C18.649 27.0509 18.6896 26.9197 18.7669 26.8101C18.8441 26.7006 18.954 26.6183 19.0809 26.575C19.5506 26.4158 20.0084 26.2237 20.4509 26C20.5704 25.9418 20.7051 25.9226 20.836 25.945C20.967 25.9675 21.0876 26.0304 21.1809 26.125L21.7359 26.68C22.0459 26.9872 22.4646 27.1595 22.9009 27.1595C23.3373 27.1595 23.756 26.9872 24.0659 26.68L26.0359 24.71C26.3431 24.4 26.5154 23.9813 26.5154 23.545C26.5154 23.1086 26.3431 22.6899 26.0359 22.38L25.5009 21.83C25.4059 21.7359 25.3428 21.6144 25.3204 21.4826C25.2979 21.3507 25.3174 21.2152 25.3759 21.095C25.6004 20.6476 25.7925 20.1848 25.9509 19.71C25.9931 19.583 26.0743 19.4725 26.1829 19.3944C26.2916 19.3163 26.4221 19.2745 26.5559 19.275H27.3409C27.7772 19.275 28.1956 19.1017 28.5041 18.7932C28.8126 18.4847 28.9859 18.0663 28.9859 17.63V14.845C28.986 14.6273 28.9428 14.4117 28.8588 14.2108C28.7749 14.0099 28.652 13.8277 28.4971 13.6747C28.3422 13.5216 28.1585 13.4009 27.9566 13.3194C27.7547 13.2379 27.5386 13.1973 27.3209 13.2ZM22.8209 13.88C23.3197 15.4134 23.3198 17.0654 22.8213 18.5989C22.3227 20.1324 21.3512 21.4686 20.046 22.4155C18.7409 23.3625 17.1693 23.8717 15.5568 23.8699C13.9443 23.8682 12.3738 23.3556 11.0707 22.4058C9.76767 21.456 8.79901 20.1178 8.3038 18.5832C7.80859 17.0486 7.81228 15.3966 8.31436 13.8642C8.81643 12.3319 9.79106 10.998 11.0984 10.054C12.4057 9.11006 13.9784 8.60452 15.5909 8.60999C16.5391 8.60915 17.4789 8.78727 18.3609 9.13499L12.3609 15.085C12.2952 15.1494 12.2484 15.2307 12.2259 15.32L11.0809 19.88C11.055 19.9673 11.0534 20.06 11.0764 20.1481C11.0993 20.2362 11.1458 20.3164 11.2109 20.38C11.2572 20.4272 11.3125 20.4648 11.3734 20.4906C11.4343 20.5163 11.4998 20.5297 11.5659 20.53C11.6058 20.5348 11.6461 20.5348 11.6859 20.53L16.2959 19.395C16.3841 19.3762 16.4644 19.3309 16.5259 19.265L22.6059 13.265C22.696 13.4659 22.7761 13.6712 22.8459 13.88H22.8209ZM12.9659 16.41L15.1759 18.595L12.2409 19.32L12.9659 16.41ZM16.1609 18.165L13.4059 15.44L23.3259 5.63999L26.0809 8.36499L16.1609 18.165ZM25.6609 3.91499C26.034 3.91129 26.3934 4.05505 26.6609 4.31499L27.4309 5.07999C27.6917 5.34148 27.8381 5.6957 27.8381 6.06499C27.8381 6.43427 27.6917 6.78849 27.4309 7.04999L26.8109 7.65999L24.0359 4.93499L24.6509 4.32499C24.7799 4.19492 24.9333 4.09171 25.1024 4.02133C25.2715 3.95096 25.4528 3.91481 25.6359 3.91499H25.6609ZM27.9909 17.63C27.9909 17.801 27.923 17.9651 27.802 18.0861C27.6811 18.207 27.517 18.275 27.3459 18.275H26.5359C26.1955 18.2792 25.8648 18.3893 25.5897 18.59C25.3146 18.7907 25.1089 19.0721 25.0009 19.395C24.8613 19.8236 24.6943 20.2428 24.5009 20.65C24.35 20.9574 24.2987 21.3042 24.3543 21.6421C24.4098 21.98 24.5695 22.2921 24.8109 22.535L25.3659 23.09C25.4263 23.1499 25.4741 23.2212 25.5068 23.2997C25.5395 23.3782 25.5563 23.4624 25.5563 23.5475C25.5563 23.6325 25.5395 23.7167 25.5068 23.7952C25.4741 23.8738 25.4263 23.945 25.3659 24.005L23.3559 26C23.296 26.0603 23.2247 26.1082 23.1462 26.1408C23.0677 26.1735 22.9835 26.1903 22.8984 26.1903C22.8134 26.1903 22.7292 26.1735 22.6507 26.1408C22.5722 26.1082 22.5009 26.0603 22.4409 26L21.8859 25.445C21.6472 25.1974 21.3364 25.0317 20.9978 24.9716C20.6592 24.9114 20.3103 24.9599 20.0009 25.11C19.5924 25.3042 19.1715 25.4713 18.7409 25.61C18.4145 25.7179 18.1307 25.9266 17.9303 26.206C17.7299 26.4854 17.6234 26.8212 17.6259 27.165V27.95C17.63 28.1207 17.5667 28.2862 17.4498 28.4106C17.3328 28.5351 17.1716 28.6085 17.0009 28.615H14.1959C14.0249 28.615 13.8608 28.547 13.7399 28.4261C13.6189 28.3051 13.5509 28.141 13.5509 27.97V27.185C13.5527 26.8413 13.4459 26.5059 13.2456 26.2267C13.0454 25.9474 12.762 25.7386 12.4359 25.63C12.0054 25.4912 11.5845 25.3242 11.1759 25.13C10.8691 24.9768 10.5217 24.9242 10.1833 24.9799C9.84482 25.0356 9.53257 25.1966 9.29094 25.44L8.73594 26C8.67599 26.0603 8.60471 26.1082 8.52619 26.1408C8.44768 26.1735 8.36348 26.1903 8.27844 26.1903C8.1934 26.1903 8.1092 26.1735 8.03068 26.1408C7.95216 26.1082 7.88088 26.0603 7.82094 26L5.85094 24C5.79007 23.941 5.74183 23.8702 5.70917 23.792C5.67651 23.7138 5.6601 23.6297 5.66094 23.545C5.66028 23.4595 5.67676 23.3748 5.70939 23.2958C5.74202 23.2168 5.79015 23.1451 5.85094 23.085L6.40594 22.53C6.65003 22.2888 6.81149 21.9765 6.86718 21.6378C6.92287 21.2992 6.86992 20.9517 6.71594 20.645C6.5217 20.2365 6.35467 19.8155 6.21594 19.385C6.10605 19.0598 5.89688 18.7772 5.6179 18.5772C5.33893 18.3772 5.00422 18.2697 4.66094 18.27H3.85594C3.68487 18.27 3.52081 18.202 3.39985 18.0811C3.27889 17.9601 3.21094 17.7961 3.21094 17.625V14.845C3.21094 14.6739 3.27889 14.5099 3.39985 14.3889C3.52081 14.2679 3.68487 14.2 3.85594 14.2H4.64094C4.98458 14.2018 5.31999 14.0949 5.59926 13.8947C5.87853 13.6944 6.08737 13.411 6.19594 13.085C6.33466 12.6528 6.50169 12.2302 6.69594 11.82C6.84952 11.5141 6.90225 11.1673 6.84655 10.8296C6.79086 10.4918 6.62961 10.1804 6.38594 9.93999L5.85094 9.38499C5.73033 9.26326 5.66267 9.09884 5.66267 8.92749C5.66267 8.75613 5.73033 8.59171 5.85094 8.46999L7.82094 6.49999C7.88088 6.43967 7.95216 6.3918 8.03068 6.35913C8.1092 6.32647 8.1934 6.30965 8.27844 6.30965C8.36348 6.30965 8.44768 6.32647 8.52619 6.35913C8.60471 6.3918 8.67599 6.43967 8.73594 6.49999L9.29094 7.05499C9.53298 7.29774 9.84519 7.45829 10.1835 7.51392C10.5217 7.56955 10.8689 7.51745 11.1759 7.36499C11.5845 7.17075 12.0054 7.00372 12.4359 6.86499C12.7616 6.75575 13.0445 6.54675 13.2447 6.26763C13.4448 5.98851 13.552 5.65344 13.5509 5.30999V4.49999C13.5509 4.32892 13.6189 4.16486 13.7399 4.0439C13.8608 3.92294 14.0249 3.85499 14.1959 3.85499H17.0009C17.169 3.86015 17.3285 3.93023 17.4459 4.0505C17.5634 4.17077 17.6297 4.33187 17.6309 4.49999V5.28499C17.6291 5.62862 17.736 5.96404 17.9363 6.24331C18.1365 6.52258 18.4199 6.73142 18.7459 6.83999C19.2091 7.00111 19.6602 7.19493 20.0959 7.41999L19.1359 8.36499C18.0227 7.85966 16.8135 7.60043 15.5909 7.60499C13.7756 7.60886 12.008 8.18674 10.541 9.25597C9.07395 10.3252 7.98264 11.831 7.42316 13.558C6.86369 15.2849 6.86471 17.1446 7.42607 18.8709C7.98743 20.5973 9.08039 22.1019 10.5486 23.1695C12.0168 24.2371 13.785 24.8131 15.6004 24.815C17.4157 24.8168 19.1851 24.2446 20.6555 23.18C22.1259 22.1155 23.222 20.6131 23.787 18.888C24.3519 17.1628 24.3568 15.3031 23.8009 13.575C23.6743 13.1984 23.5223 12.8309 23.3459 12.475L24.2959 11.535C24.5766 12.0296 24.8126 12.5483 25.0009 13.085C25.1108 13.4102 25.32 13.6927 25.599 13.8928C25.8779 14.0928 26.2127 14.2003 26.5559 14.2H27.3409C27.512 14.2 27.6761 14.2679 27.797 14.3889C27.918 14.5099 27.9859 14.6739 27.9859 14.845L27.9909 17.63Z" fill="black"/>
</svg>
