<svg width="32" height="32" viewBox="0 0 32 32" fill="none" xmlns="http://www.w3.org/2000/svg">
<path d="M24.1937 17.4073H23.3695C23.1104 17.4073 22.9004 17.6173 22.9004 17.8765C22.9005 18.1356 23.1105 18.3456 23.3695 18.3456H24.1937C24.4528 18.3456 24.6628 18.1356 24.6628 17.8765C24.6628 17.6173 24.4528 17.4073 24.1937 17.4073Z" fill="#909090"/>
<path d="M31.9985 14.7376C31.9954 14.6586 31.9864 14.5797 31.9711 14.5026L30.9201 9.18332C30.92 9.18313 30.9199 9.18295 30.9199 9.18276L30.7113 8.12695C30.5712 7.41783 29.9448 6.90308 29.2219 6.90308H1.52256C0.682999 6.90301 0 7.58608 0 8.42564V20.9628C0 21.8024 0.682999 22.4854 1.52256 22.4854H3.00849C3.23506 23.962 4.51412 25.0967 6.05318 25.0967C7.59224 25.0967 8.8713 23.9621 9.09786 22.4854H10.306C10.565 22.4854 10.7751 22.2754 10.7751 22.0162C10.7751 21.7571 10.5651 21.5471 10.306 21.5471H9.0978C8.87123 20.0705 7.59217 18.9359 6.05311 18.9359C4.51405 18.9359 3.23499 20.0704 3.00843 21.5471H1.52256C1.20031 21.5471 0.938186 21.2849 0.938186 20.9627V8.42564C0.938186 8.10339 1.20031 7.8412 1.52256 7.8412H29.2219C29.498 7.8412 29.7373 8.03782 29.7909 8.30876L29.8889 8.80513H23.7296C23.2723 8.80513 22.9003 9.17713 22.9003 9.63438V14.6941C22.9003 15.1701 23.1282 15.6216 23.5099 15.9019C24.4287 16.5769 26.483 17.4111 31.0617 17.6176V20.7656C31.0617 21.1966 30.7111 21.5472 30.2801 21.5472H28.9914C28.7648 20.0706 27.4858 18.936 25.9466 18.936C24.4076 18.936 23.1286 20.0706 22.902 21.5472H12.4888C12.2297 21.5472 12.0197 21.7572 12.0197 22.0164C12.0197 22.2755 12.2297 22.4855 12.4888 22.4855H22.9021C23.1286 23.9622 24.4077 25.0968 25.9468 25.0968C27.4859 25.0968 28.7649 23.9622 28.9915 22.4855H30.2802C31.2285 22.4855 32 21.714 32 20.7657V14.797V14.7969C31.9999 14.7771 31.9993 14.7573 31.9985 14.7376ZM6.05318 19.8742C7.23436 19.8742 8.1953 20.8351 8.1953 22.0163C8.1953 23.1975 7.23436 24.1585 6.05318 24.1585C4.87199 24.1585 3.91106 23.1975 3.91106 22.0163C3.91106 20.8351 4.87199 19.8742 6.05318 19.8742ZM25.9468 24.1584C24.7656 24.1584 23.8046 23.1974 23.8046 22.0162C23.8046 20.835 24.7656 19.8741 25.9468 19.8741C27.1279 19.8741 28.0889 20.835 28.0889 22.0162C28.0889 23.1974 27.1279 24.1584 25.9468 24.1584ZM23.8386 14.6941V9.74338H30.0743L31.0507 14.6847C31.0524 14.6935 31.0533 14.7025 31.0546 14.7114C31.0585 14.7375 31.061 14.7638 31.0613 14.7901C31.0613 14.7924 31.0616 14.7947 31.0616 14.7969V16.6784C26.5177 16.4689 24.7316 15.6352 24.0654 15.1458C23.9234 15.0415 23.8386 14.8726 23.8386 14.6941Z" fill="#909090"/>
<path d="M10.6768 8.80518H2.82436C2.4118 8.80518 2.07617 9.1408 2.07617 9.55336V14.8321C2.07617 15.2447 2.4118 15.5803 2.82436 15.5803H10.6768C11.0894 15.5803 11.425 15.2447 11.425 14.8321V9.55336C11.425 9.1408 11.0894 8.80518 10.6768 8.80518ZM6.28148 14.6421H3.01436V9.74336H6.28148V14.6421ZM10.4868 14.6421H7.21972V9.74336H10.4868V14.6421Z" fill="#909090"/>
<path d="M20.9757 8.80518H13.1232C12.7106 8.80518 12.375 9.1408 12.375 9.55336V14.8321C12.375 15.2447 12.7106 15.5803 13.1232 15.5803H20.9757C21.3883 15.5803 21.7239 15.2447 21.7239 14.8321V9.55336C21.7239 9.1408 21.3883 8.80518 20.9757 8.80518ZM20.7857 14.6421H17.5186V12.8642C17.5186 12.605 17.3086 12.395 17.0494 12.395C16.7903 12.395 16.5803 12.605 16.5803 12.8642V14.6421H13.3132V9.74336H16.5803V10.6814C16.5803 10.9405 16.7903 11.1505 17.0494 11.1505C17.3086 11.1505 17.5186 10.9405 17.5186 10.6814V9.74336H20.7857V14.6421Z" fill="#909090"/>
</svg>
