<svg width="32" height="32" viewBox="0 0 32 32" fill="none" xmlns="http://www.w3.org/2000/svg">
<g clip-path="url(#clip0_293_1274)">
<path d="M16.0413 3.91663C9.87467 3.91663 4.83301 8.95829 4.83301 15.125C4.83301 21.3333 9.83301 26.3333 16.0413 26.3333C22.208 26.3333 27.2497 21.2916 27.2497 15.125C27.2497 8.95829 22.208 3.91663 16.0413 3.91663ZM25.4163 10.75L16.833 14.4583L20.333 5.70829C22.5413 6.70829 24.3747 8.49996 25.4163 10.75ZM16.0413 4.74996C17.2497 4.74996 18.4163 4.99996 19.5413 5.37496L16.083 14.0416L12.3747 5.41663C13.4997 4.99996 14.7497 4.74996 16.0413 4.74996ZM11.583 5.74996L15.2913 14.375L6.54134 10.9166C7.58301 8.66663 9.37467 6.83329 11.583 5.74996ZM5.66634 15.125C5.66634 13.9166 5.87467 12.75 6.24967 11.6666L15.083 15.1666L6.37467 18.9166C5.91634 17.7916 5.66634 16.5 5.66634 15.125ZM6.70801 19.7083L15.2913 16L11.8747 24.625C9.62467 23.6666 7.79134 21.9166 6.70801 19.7083ZM15.9997 25.5416C14.833 25.5 13.708 25.3333 12.6247 24.9583L16.083 16.25L19.7913 24.8333C18.6247 25.2916 17.333 25.5416 15.9997 25.5416ZM20.583 24.4583L16.8747 15.875L25.4997 19.2916C24.5413 21.5833 22.7497 23.375 20.583 24.4583ZM17.2913 15.1666L25.7497 11.5C26.1663 12.625 26.4163 13.875 26.4163 15.125C26.4163 16.3333 26.208 17.5 25.833 18.5416L17.2913 15.1666Z" fill="#909090"/>
<path d="M29.6667 16.0833C30.4583 16.0833 31.125 15.4167 31.125 14.625C31.125 13.8333 30.4583 13.1667 29.6667 13.1667C29.4167 13.1667 29.1667 13.25 28.9583 13.375C28.875 12.625 28.7083 11.875 28.4583 11.1667C28.5 11.1667 28.5833 11.1667 28.625 11.1667C29.4167 11.1667 30.0833 10.5 30.0833 9.70833C30.0833 8.91667 29.4167 8.25 28.625 8.25C28.1667 8.25 27.75 8.5 27.4583 8.83333C27 8 26.4583 7.20833 25.8333 6.5C26.4583 6.33333 26.9583 5.79167 26.9583 5.08333C26.9583 4.29167 26.2917 3.625 25.5 3.625C24.7917 3.625 24.2083 4.125 24.0833 4.79167C23.4167 4.25 22.6667 3.75 21.875 3.375C22.2083 3.125 22.4583 2.70833 22.4583 2.20833C22.4583 1.41667 21.7917 0.75 21 0.75C20.2083 0.75 19.625 1.54167 19.625 2.33333C19.625 2.41667 19.625 2.5 19.6667 2.58333C18.9167 2.375 18.1667 2.20833 17.375 2.125C17.5 1.91667 17.5417 1.70833 17.5417 1.45833C17.5417 0.666667 16.875 0 16.0833 0C15.2917 0 14.625 0.666667 14.625 1.45833C14.625 1.70833 14.7083 1.91667 14.7917 2.125C13.8333 2.20833 12.9167 2.41667 12 2.66667C12 2.58333 12 2.54167 12 2.45833C12 1.66667 11.3333 1 10.5417 1C9.75 1 9.08333 1.66667 9.08333 2.45833C9.08333 2.91667 9.33333 3.375 9.66667 3.625C9 4 8.33333 4.41667 7.70833 4.91667C7.54167 4.29167 7 3.83333 6.33333 3.83333C5.54167 3.83333 4.875 4.5 4.875 5.29167C4.875 5.95833 5.33333 6.5 5.91667 6.66667C5.45833 7.375 4.95833 8.16667 4.5 9C4.25 8.66667 3.83333 8.45833 3.375 8.45833C2.58333 8.45833 1.91667 9.125 1.91667 9.91667C1.91667 10.7083 2.58333 11.375 3.375 11.375C3.41667 11.375 3.5 11.375 3.54167 11.375C3.25 12.375 3.04167 13.4167 3 14.4583C2.79167 14.3333 2.58333 14.2917 2.33333 14.2917C1.54167 14.2917 0.875 14.9583 0.875 15.75C0.875 16.5 1.5 17.125 2.29167 17.125C2.58333 17.125 2.83333 17.0417 3.08333 16.875C3.16667 17.625 3.375 18.375 3.58333 19.125C3.5 19.125 3.41667 19.0833 3.33333 19.0833C2.54167 19.0833 1.875 19.75 1.875 20.5417C1.875 21.3333 2.54167 22 3.33333 22C3.83333 22 4.29167 21.75 4.54167 21.3333C5 22.2083 5.58333 23 6.20833 23.75C5.54167 23.875 5 24.4583 5 25.1667C5 25.9583 5.66667 26.625 6.45833 26.625C7.20833 26.625 7.79167 26.0833 7.875 25.375C8.5 25.875 9.16667 26.3333 9.91667 26.7083L8.04167 31.1667H5.91667C5.66667 31.1667 5.5 31.3333 5.5 31.5833C5.5 31.8333 5.66667 32 5.91667 32H26.125C26.375 32 26.5417 31.8333 26.5417 31.5833C26.5417 31.3333 26.375 31.1667 26.125 31.1667H24.125L22.7083 27.3333C22.7083 27.2917 22.7083 27.2917 22.6667 27.25L22.375 26.5C23 26.1667 23.5833 25.75 24.125 25.3333C24.2917 25.9583 24.8333 26.4583 25.5417 26.4583C26.3333 26.4583 27 25.7917 27 25C27 24.3333 26.5417 23.7917 25.9583 23.625C26.5833 22.9167 27.125 22.125 27.5833 21.2917C27.8333 21.625 28.25 21.8333 28.7083 21.8333C29.5 21.8333 30.1667 21.1667 30.1667 20.375C30.1667 19.5833 29.4167 19 28.625 19C28.5833 19 28.5417 19 28.5 19C28.7917 18 29 17 29.0417 15.9167C29.25 16 29.4583 16.0833 29.6667 16.0833ZM29.7083 14.0417C30.0417 14.0417 30.3333 14.3333 30.3333 14.6667C30.3333 15 30.0417 15.2917 29.7083 15.2917C29.375 15.2917 29.0833 15 29.0833 14.6667C29.0833 14.3333 29.375 14.0417 29.7083 14.0417ZM2.29167 16.3333C1.95833 16.3333 1.66667 16.0417 1.66667 15.7083C1.66667 15.375 1.95833 15.0833 2.29167 15.0833C2.625 15.0833 2.91667 15.375 2.91667 15.7083C2.91667 16.0417 2.625 16.3333 2.29167 16.3333ZM28.6667 9.20833C29 9.20833 29.2917 9.5 29.2917 9.83333C29.2917 10.1667 29 10.4583 28.6667 10.4583C28.3333 10.4583 28.0417 10.1667 28.0417 9.83333C28.0417 9.5 28.3333 9.20833 28.6667 9.20833ZM25.5833 4.58333C25.9167 4.58333 26.2083 4.875 26.2083 5.20833C26.2083 5.54167 25.9167 5.83333 25.5833 5.83333C25.25 5.83333 24.9583 5.54167 24.9583 5.20833C24.9583 4.875 25.25 4.58333 25.5833 4.58333ZM21.0833 1.75C21.4167 1.75 21.7083 2.04167 21.7083 2.375C21.7083 2.70833 21.4167 3 21.0833 3C20.75 3 20.4583 2.70833 20.4583 2.375C20.4583 2 20.75 1.75 21.0833 1.75ZM16.125 0.875C16.4583 0.875 16.75 1.16667 16.75 1.5C16.75 1.83333 16.4583 2.125 16.125 2.125C15.7917 2.125 15.5 1.83333 15.5 1.5C15.5 1.125 15.7917 0.875 16.125 0.875ZM10.6667 1.875C11 1.875 11.2917 2.16667 11.2917 2.5C11.2917 2.83333 11 3.125 10.6667 3.125C10.3333 3.125 10.0417 2.83333 10.0417 2.5C10.0417 2.16667 10.3333 1.875 10.6667 1.875ZM5.875 5.29167C5.875 4.95833 6.16667 4.66667 6.5 4.66667C6.83333 4.66667 7.125 4.95833 7.125 5.29167C7.125 5.625 6.83333 5.91667 6.5 5.91667C6.125 5.91667 5.875 5.625 5.875 5.29167ZM3.375 10.5417C3.04167 10.5 2.75 10.25 2.75 9.91667C2.75 9.58333 3.04167 9.29167 3.375 9.29167C3.70833 9.29167 4 9.58333 4 9.91667C4 10.25 3.70833 10.5417 3.375 10.5417ZM3.33333 21.1667C3 21.1667 2.70833 20.875 2.70833 20.5417C2.70833 20.2083 3 19.9167 3.33333 19.9167C3.66667 19.9167 3.95833 20.2083 3.95833 20.5417C3.95833 20.875 3.66667 21.1667 3.33333 21.1667ZM6.41667 25.75C6.08333 25.75 5.79167 25.4583 5.79167 25.125C5.79167 24.7917 6.08333 24.5 6.41667 24.5C6.75 24.5 7.04167 24.7917 7.04167 25.125C7.04167 25.5 6.75 25.75 6.41667 25.75ZM22.4167 28.875L23.25 31.125H8.91667L9.83333 28.9167C10.0833 29.2083 10.5 29.4167 10.9167 29.4167C11.7083 29.4167 12.375 28.75 12.375 27.9583C12.375 27.8333 12.375 27.75 12.3333 27.625C13.0833 27.8333 13.875 28 14.6667 28.0833C14.5417 28.2917 14.4583 28.5417 14.4583 28.8333C14.4583 29.625 15.125 30.2917 15.9167 30.2917C16.7083 30.2917 17.375 29.625 17.375 28.8333C17.375 28.5833 17.2917 28.3333 17.1667 28.125C18.125 28.0417 19.0833 27.875 19.9583 27.5833C19.9583 27.6667 19.9167 27.75 19.9167 27.8333C19.9167 28.625 20.5833 29.2917 21.375 29.2917C21.7917 29.2917 22.125 29.125 22.4167 28.875ZM10.2917 28.0417C10.3333 27.6667 10.5833 27.4167 10.9167 27.4167C11.25 27.4167 11.5417 27.7083 11.5417 28.0417C11.5417 28.375 11.25 28.6667 10.9167 28.6667C10.5833 28.6667 10.2917 28.375 10.2917 28.0417ZM15.25 28.9167C15.2917 28.5417 15.5417 28.2917 15.875 28.2917C16.2083 28.2917 16.5 28.5833 16.5 28.9167C16.5 29.25 16.2083 29.5417 15.875 29.5417C15.5417 29.5417 15.25 29.25 15.25 28.9167ZM20.7083 27.8333C20.7083 27.5 21 27.2083 21.3333 27.2083C21.5833 27.2083 21.7917 27.3333 21.875 27.5417L21.9167 27.6667C21.9167 27.7083 21.9583 27.7917 21.9583 27.8333C21.9583 28.1667 21.6667 28.4583 21.3333 28.4583C21 28.4583 20.7083 28.1667 20.7083 27.8333ZM26.125 25.0417C26.125 25.375 25.8333 25.6667 25.5 25.6667C25.1667 25.6667 24.875 25.375 24.875 25.0417C24.875 24.7083 25.1667 24.4167 25.5 24.4167C25.875 24.4583 26.125 24.7083 26.125 25.0417ZM16.0417 27.4167C9.29167 27.375 3.79167 21.875 3.79167 15.125C3.79167 8.41667 9.29167 2.91667 16.0417 2.91667C22.7917 2.91667 28.2917 8.41667 28.2917 15.1667C28.2917 21.9167 22.7917 27.4167 16.0417 27.4167ZM28.625 19.8333C28.9583 19.8333 29.25 20.125 29.25 20.4583C29.25 20.7917 28.9583 21.0833 28.625 21.0833C28.2917 21.0833 28 20.7917 28 20.4583C28 20.125 28.2917 19.8333 28.625 19.8333Z" fill="#909090"/>
</g>
<defs>
<clipPath id="clip0_293_1274">
<rect width="32" height="32" fill="white"/>
</clipPath>
</defs>
</svg>
