<svg width="32" height="32" viewBox="0 0 32 32" fill="none" xmlns="http://www.w3.org/2000/svg">
<g clip-path="url(#clip0_329_1406)">
<mask id="mask0_329_1406" style="mask-type:luminance" maskUnits="userSpaceOnUse" x="0" y="0" width="32" height="32">
<path d="M0 1.90735e-06H32V32H0V1.90735e-06Z" fill="white"/>
</mask>
<g mask="url(#mask0_329_1406)">
<path d="M0.502935 15.0207L3.708 6.89649C3.80693 6.64562 4.09056 6.52243 4.34143 6.62143L6.89175 7.62755C7.14262 7.72649 7.26581 8.01012 7.16681 8.26099L3.96175 16.3852C3.86281 16.6361 3.57918 16.7592 3.32831 16.6602L0.777997 15.6542C0.527122 15.5552 0.403997 15.2716 0.502935 15.0207Z" stroke="black" stroke-miterlimit="10" stroke-linecap="round" stroke-linejoin="round"/>
<path d="M22.9634 19.5649L21.2949 18.2794" stroke="black" stroke-miterlimit="10" stroke-linecap="round" stroke-linejoin="round"/>
<path d="M20.7313 21.3615L19.248 20.2195" stroke="black" stroke-miterlimit="10" stroke-linecap="round" stroke-linejoin="round"/>
<path d="M18.2778 22.9976L17.2207 22.1795" stroke="black" stroke-miterlimit="10" stroke-linecap="round" stroke-linejoin="round"/>
<path d="M7.13312 20.3104C6.61112 19.8678 6.54675 19.0859 6.98937 18.5639L8.14806 17.2038C8.59069 16.6818 9.37269 16.6174 9.89462 17.0601C10.4166 17.5026 10.481 18.2846 10.0384 18.8066L8.87969 20.1667C8.43706 20.6887 7.65512 20.7531 7.13312 20.3104Z" stroke="black" stroke-miterlimit="10" stroke-linecap="round" stroke-linejoin="round"/>
<path d="M9.02372 21.9132C8.50172 21.4706 8.43741 20.6887 8.87997 20.1667L10.0387 18.8066C10.4813 18.2846 11.2633 18.2202 11.7853 18.6628C12.3073 19.1054 12.3716 19.8874 11.929 20.4093L10.7703 21.7695C10.3277 22.2915 9.54572 22.3558 9.02372 21.9132Z" stroke="black" stroke-miterlimit="10" stroke-linecap="round" stroke-linejoin="round"/>
<path d="M10.9144 23.516C10.3924 23.0734 10.328 22.2914 10.7706 21.7694L11.9294 20.4093C12.3719 19.8874 13.1539 19.823 13.6759 20.2656C14.1979 20.7082 14.2622 21.4901 13.8196 22.0121L12.6609 23.3722C12.2183 23.8942 11.4364 23.9586 10.9144 23.516Z" stroke="black" stroke-miterlimit="10" stroke-linecap="round" stroke-linejoin="round"/>
<path d="M12.805 25.1188C12.283 24.6762 12.2186 23.8942 12.6612 23.3722L13.8199 22.0122C14.2626 21.4902 15.0446 21.4258 15.5665 21.8684C16.0885 22.311 16.1529 23.0929 15.7102 23.6149L14.5516 24.975C14.1089 25.497 13.327 25.5614 12.805 25.1188Z" stroke="black" stroke-miterlimit="10" stroke-linecap="round" stroke-linejoin="round"/>
<path d="M25.0426 17.6049L24.4193 17.145L21.4881 14.9817L21.1522 14.7455C18.385 15.2156 16.5298 13.6994 15.7746 12.9108C15.5525 12.6788 15.1858 12.67 14.9469 12.8846C12.3521 15.215 10.8495 14.6177 10.1199 13.9245C9.76908 13.5912 9.82945 13.0166 10.2368 12.7552C11.6315 11.86 12.9338 10.7269 13.8644 9.84385L13.6987 9.78179C13.1096 9.56104 12.4906 9.43085 11.8626 9.39554L10.1465 9.29917C9.92176 9.28654 9.69633 9.28373 9.4717 9.29817C9.06664 9.32423 8.65995 9.25648 8.2837 9.09904L7.04127 8.57917L3.99414 16.303L6.40308 17.8222L7.16545 18.3581L8.14889 17.2039C8.59145 16.6818 9.37339 16.6175 9.89539 17.06C10.4174 17.5027 10.4818 18.2846 10.0391 18.8066C10.4818 18.2846 11.2637 18.2202 11.7857 18.6629C12.3077 19.1055 12.3721 19.8874 11.9295 20.4094C12.3721 19.8874 13.154 19.823 13.676 20.2657C14.198 20.7082 14.2624 21.4902 13.8198 22.0122C14.2624 21.4902 15.0443 21.4259 15.5663 21.8684C16.0883 22.311 16.1527 23.093 15.7101 23.615L15.2401 24.1667L16.2746 24.9302C16.8492 25.3542 17.6589 25.3055 18.1522 24.7894C18.6324 24.287 18.661 23.5307 18.2771 22.9976L18.7959 23.3804C19.3875 23.817 20.2255 23.75 20.7117 23.1986C21.1828 22.6644 21.1708 21.8807 20.731 21.3615L21.0224 21.5765C21.5865 21.9928 22.3794 21.955 22.8757 21.4599C23.4033 20.9334 23.4173 20.1087 22.9636 19.565L23.4011 19.888C24.0127 20.3393 24.874 20.2234 25.344 19.622C25.8346 18.9942 25.6838 18.0781 25.0426 17.6049Z" stroke="black" stroke-miterlimit="10" stroke-linecap="round" stroke-linejoin="round"/>
<path d="M18.0307 8.85939L16.2514 8.57739C15.6495 8.48196 15.0378 8.68127 14.6094 9.11464C13.7265 10.0078 12.0604 11.5849 10.2373 12.7551C9.82995 13.0165 9.76951 13.591 10.1204 13.9244C10.8499 14.6176 12.3525 15.2149 14.9474 12.8845C15.1863 12.6698 15.5529 12.6786 15.7751 12.9106C16.5315 13.7005 18.3913 15.2206 21.1659 14.7435L25.3375 17.8221L27.9448 16.1474L24.9674 8.60014L23.1577 9.26821C22.6558 9.45346 22.1148 9.50671 21.5864 9.42302L20.2043 9.20396" stroke="black" stroke-miterlimit="10" stroke-linecap="round" stroke-linejoin="round"/>
<path d="M29.5275 10.0286L28.2918 6.89646C28.1929 6.64565 27.9093 6.52246 27.6584 6.6214L25.1081 7.62752C24.8572 7.72652 24.7341 8.01015 24.833 8.26096L28.0381 16.3852C28.137 16.6361 28.4207 16.7592 28.6715 16.6603L31.2218 15.6541C31.4728 15.5551 31.5959 15.2716 31.4969 15.0207L30.3313 12.066" stroke="black" stroke-miterlimit="10" stroke-linecap="round" stroke-linejoin="round"/>
</g>
</g>
<defs>
<clipPath id="clip0_329_1406">
<rect width="32" height="32" fill="white"/>
</clipPath>
</defs>
</svg>
