<svg width="32" height="32" viewBox="0 0 32 32" fill="none" xmlns="http://www.w3.org/2000/svg">
<path d="M24.2164 30.4865H7.78399C7.66931 30.4865 7.55932 30.4409 7.47822 30.3598C7.39712 30.2787 7.35156 30.1687 7.35156 30.054V4.10809C7.35156 3.9934 7.39712 3.88341 7.47822 3.80232C7.55932 3.72122 7.66931 3.67566 7.78399 3.67566H24.2164C24.3311 3.67566 24.4411 3.72122 24.5222 3.80232C24.6033 3.88341 24.6489 3.9934 24.6489 4.10809V30.054C24.6489 30.1687 24.6033 30.2787 24.5222 30.3598C24.4411 30.4409 24.3311 30.4865 24.2164 30.4865ZM8.21643 29.6216H23.784V4.54052H8.21643V29.6216Z" fill="black"/>
<path d="M20.757 4.54058H11.2435C11.1288 4.54058 11.0188 4.49502 10.9377 4.41392C10.8566 4.33282 10.811 4.22283 10.811 4.10814V1.94598C10.811 1.83129 10.8566 1.7213 10.9377 1.64021C11.0188 1.55911 11.1288 1.51355 11.2435 1.51355H20.757C20.8717 1.51355 20.9817 1.55911 21.0628 1.64021C21.1439 1.7213 21.1894 1.83129 21.1894 1.94598V4.10814C21.1894 4.22283 21.1439 4.33282 21.0628 4.41392C20.9817 4.49502 20.8717 4.54058 20.757 4.54058ZM11.6759 3.67571H20.3245V2.37841H11.6759V3.67571Z" fill="black"/>
<path d="M30.7026 30.4865H24.2161C24.1014 30.4865 23.9914 30.4409 23.9103 30.3598C23.8293 30.2787 23.7837 30.1687 23.7837 30.0541V9.2973C23.7837 9.18261 23.8293 9.07262 23.9103 8.99152C23.9914 8.91043 24.1014 8.86487 24.2161 8.86487H30.7026C30.8173 8.86487 30.9273 8.91043 31.0084 8.99152C31.0895 9.07262 31.135 9.18261 31.135 9.2973V30.0541C31.135 30.1687 31.0895 30.2787 31.0084 30.3598C30.9273 30.4409 30.8173 30.4865 30.7026 30.4865ZM24.6486 29.6216H30.2702V9.72973H24.6486V29.6216Z" fill="black"/>
<path d="M7.78367 30.4865H1.29718C1.18249 30.4865 1.0725 30.4409 0.991403 30.3598C0.910306 30.2787 0.864746 30.1687 0.864746 30.0541V9.2973C0.864746 9.18261 0.910306 9.07262 0.991403 8.99152C1.0725 8.91043 1.18249 8.86487 1.29718 8.86487H7.78367C7.89835 8.86487 8.00834 8.91043 8.08944 8.99152C8.17054 9.07262 8.2161 9.18261 8.2161 9.2973V30.0541C8.2161 30.1687 8.17054 30.2787 8.08944 30.3598C8.00834 30.4409 7.89835 30.4865 7.78367 30.4865ZM1.72961 29.6216H7.35123V9.72973H1.72961V29.6216Z" fill="black"/>
<path d="M20.4322 10.2703H18.5944C18.365 10.2703 18.145 10.1792 17.9828 10.017C17.8206 9.85482 17.7295 9.63484 17.7295 9.40546V7.56762C17.7295 7.33825 17.8206 7.11827 17.9828 6.95607C18.145 6.79388 18.365 6.70276 18.5944 6.70276H20.4322C20.6616 6.70276 20.8816 6.79388 21.0437 6.95607C21.2059 7.11827 21.2971 7.33825 21.2971 7.56762V9.40546C21.2971 9.63484 21.2059 9.85482 21.0437 10.017C20.8816 10.1792 20.6616 10.2703 20.4322 10.2703ZM18.5944 7.56762V9.40546H20.4322V7.56762H18.5944Z" fill="black"/>
<path d="M13.4053 10.2703H11.5675C11.3381 10.2703 11.1181 10.1792 10.9559 10.017C10.7938 9.85482 10.7026 9.63484 10.7026 9.40546V7.56762C10.7026 7.33825 10.7938 7.11827 10.9559 6.95607C11.1181 6.79388 11.3381 6.70276 11.5675 6.70276H13.4053C13.6347 6.70276 13.8547 6.79388 14.0169 6.95607C14.1791 7.11827 14.2702 7.33825 14.2702 7.56762V9.40546C14.2702 9.63484 14.1791 9.85482 14.0169 10.017C13.8547 10.1792 13.6347 10.2703 13.4053 10.2703ZM13.4053 7.56762H11.5675V9.40546H13.4053V7.56762Z" fill="black"/>
<path d="M20.4322 15.6216H18.5944C18.365 15.6216 18.145 15.5305 17.9828 15.3683C17.8206 15.2061 17.7295 14.9862 17.7295 14.7568V12.9189C17.7295 12.6896 17.8206 12.4696 17.9828 12.3074C18.145 12.1452 18.365 12.0541 18.5944 12.0541H20.4322C20.6616 12.0541 20.8816 12.1452 21.0437 12.3074C21.2059 12.4696 21.2971 12.6896 21.2971 12.9189V14.7568C21.2971 14.9862 21.2059 15.2061 21.0437 15.3683C20.8816 15.5305 20.6616 15.6216 20.4322 15.6216ZM18.5944 12.9189V14.7568H20.4322V12.9189H18.5944Z" fill="black"/>
<path d="M13.4053 15.6216H11.5675C11.3381 15.6216 11.1181 15.5305 10.9559 15.3683C10.7938 15.2061 10.7026 14.9862 10.7026 14.7568V12.9189C10.7026 12.6896 10.7938 12.4696 10.9559 12.3074C11.1181 12.1452 11.3381 12.0541 11.5675 12.0541H13.4053C13.6347 12.0541 13.8547 12.1452 14.0169 12.3074C14.1791 12.4696 14.2702 12.6896 14.2702 12.9189V14.7568C14.2702 14.9862 14.1791 15.2061 14.0169 15.3683C13.8547 15.5305 13.6347 15.6216 13.4053 15.6216ZM13.4053 12.9185H11.5675V14.7563H13.4053V12.9185Z" fill="black"/>
<path d="M20.4322 20.973H18.5944C18.365 20.973 18.145 20.8818 17.9828 20.7197C17.8206 20.5575 17.7295 20.3375 17.7295 20.1081V18.2703C17.7295 18.0409 17.8206 17.8209 17.9828 17.6587C18.145 17.4965 18.365 17.4054 18.5944 17.4054H20.4322C20.6616 17.4054 20.8816 17.4965 21.0437 17.6587C21.2059 17.8209 21.2971 18.0409 21.2971 18.2703V20.1081C21.2971 20.3375 21.2059 20.5575 21.0437 20.7197C20.8816 20.8818 20.6616 20.973 20.4322 20.973ZM18.5944 18.2703V20.1081H20.4322V18.2703H18.5944Z" fill="black"/>
<path d="M13.4053 20.973H11.5675C11.3381 20.973 11.1181 20.8818 10.9559 20.7197C10.7938 20.5575 10.7026 20.3375 10.7026 20.1081V18.2703C10.7026 18.0409 10.7938 17.8209 10.9559 17.6587C11.1181 17.4965 11.3381 17.4054 11.5675 17.4054H13.4053C13.6347 17.4054 13.8547 17.4965 14.0169 17.6587C14.1791 17.8209 14.2702 18.0409 14.2702 18.2703V20.1081C14.2702 20.3375 14.1791 20.5575 14.0169 20.7197C13.8547 20.8818 13.6347 20.973 13.4053 20.973ZM13.4053 18.2698H11.5675V20.1081H13.4053V18.2698Z" fill="black"/>
<path d="M18.6843 30.4865H13.3152C13.2006 30.4865 13.0906 30.441 13.0095 30.3599C12.9284 30.2788 12.8828 30.1688 12.8828 30.0541V23.1352C12.8828 23.0205 12.9284 22.9105 13.0095 22.8294C13.0906 22.7483 13.2006 22.7028 13.3152 22.7028H18.6843C18.799 22.7028 18.909 22.7483 18.9901 22.8294C19.0712 22.9105 19.1168 23.0205 19.1168 23.1352V30.0541C19.1168 30.1688 19.0712 30.2788 18.9901 30.3599C18.909 30.441 18.799 30.4865 18.6843 30.4865ZM13.7477 29.6217H18.2519V23.5676H13.7477V29.6217Z" fill="black"/>
<path d="M28.1347 15.7838H26.7838C26.5544 15.7838 26.3345 15.6927 26.1723 15.5305C26.0101 15.3683 25.9189 15.1484 25.9189 14.919V13.5676C25.9189 13.3382 26.0101 13.1183 26.1723 12.9561C26.3345 12.7939 26.5544 12.7028 26.7838 12.7028H28.1347C28.3641 12.7028 28.5841 12.7939 28.7463 12.9561C28.9085 13.1183 28.9996 13.3382 28.9996 13.5676V14.919C28.9996 15.1484 28.9085 15.3683 28.7463 15.5305C28.5841 15.6927 28.3641 15.7838 28.1347 15.7838ZM26.7838 13.5676V14.919H28.1347V13.5676H26.7838Z" fill="black"/>
<path d="M28.1347 21.216H26.7838C26.5544 21.216 26.3345 21.1249 26.1723 20.9627C26.0101 20.8005 25.9189 20.5805 25.9189 20.3512V19.0002C25.9189 18.7709 26.0101 18.5509 26.1723 18.3887C26.3345 18.2265 26.5544 18.1354 26.7838 18.1354H28.1347C28.3641 18.1354 28.5841 18.2265 28.7463 18.3887C28.9085 18.5509 28.9996 18.7709 28.9996 19.0002V20.3512C28.9996 20.5805 28.9085 20.8005 28.7463 20.9627C28.5841 21.1249 28.3641 21.216 28.1347 21.216ZM26.7838 19.0002V20.3512H28.1347V19.0002H26.7838Z" fill="black"/>
<path d="M28.1347 26.6487H26.7838C26.5544 26.6487 26.3345 26.5576 26.1723 26.3954C26.0101 26.2332 25.9189 26.0132 25.9189 25.7838V24.4325C25.9189 24.2031 26.0101 23.9831 26.1723 23.8209C26.3345 23.6587 26.5544 23.5676 26.7838 23.5676H28.1347C28.3641 23.5676 28.5841 23.6587 28.7463 23.8209C28.9085 23.9831 28.9996 24.2031 28.9996 24.4325V25.7838C28.9996 26.0132 28.9085 26.2332 28.7463 26.3954C28.5841 26.5576 28.3641 26.6487 28.1347 26.6487ZM26.7838 24.4325V25.7838H28.1347V24.4325H26.7838Z" fill="black"/>
<path d="M5.21578 15.7838H3.86486C3.63549 15.7838 3.41551 15.6927 3.25331 15.5305C3.09112 15.3683 3 15.1484 3 14.919V13.5676C3 13.3382 3.09112 13.1183 3.25331 12.9561C3.41551 12.7939 3.63549 12.7028 3.86486 12.7028H5.21578C5.44516 12.7028 5.66514 12.7939 5.82734 12.9561C5.98953 13.1183 6.08065 13.3382 6.08065 13.5676V14.919C6.08065 15.1484 5.98953 15.3683 5.82734 15.5305C5.66514 15.6927 5.44516 15.7838 5.21578 15.7838ZM3.86486 13.5676V14.919H5.21578V13.5676H3.86486Z" fill="black"/>
<path d="M5.21578 21.216H3.86486C3.63549 21.216 3.41551 21.1249 3.25331 20.9627C3.09112 20.8005 3 20.5805 3 20.3512V19.0002C3 18.7709 3.09112 18.5509 3.25331 18.3887C3.41551 18.2265 3.63549 18.1354 3.86486 18.1354H5.21578C5.44516 18.1354 5.66514 18.2265 5.82734 18.3887C5.98953 18.5509 6.08065 18.7709 6.08065 19.0002V20.3512C6.08065 20.5805 5.98953 20.8005 5.82734 20.9627C5.66514 21.1249 5.44516 21.216 5.21578 21.216ZM3.86486 19.0002V20.3512H5.21578V19.0002H3.86486Z" fill="black"/>
<path d="M5.21578 26.6487H3.86486C3.63549 26.6487 3.41551 26.5576 3.25331 26.3954C3.09112 26.2332 3 26.0132 3 25.7838V24.4325C3 24.2031 3.09112 23.9831 3.25331 23.8209C3.41551 23.6587 3.63549 23.5676 3.86486 23.5676H5.21578C5.44516 23.5676 5.66514 23.6587 5.82734 23.8209C5.98953 23.9831 6.08065 24.2031 6.08065 24.4325V25.7838C6.08065 26.0132 5.98953 26.2332 5.82734 26.3954C5.66514 26.5576 5.44516 26.6487 5.21578 26.6487ZM3.86486 24.4325V25.7838H5.21578V24.4325H3.86486Z" fill="black"/>
</svg>
