<svg width="32" height="32" viewBox="0 0 32 32" fill="none" xmlns="http://www.w3.org/2000/svg">
<path d="M31.9976 29.8154L30.3976 12.7547C30.3807 12.5748 30.2739 12.4154 30.1137 12.3318L23.9804 9.12658C23.969 9.12064 23.9558 9.12189 23.9442 9.11683C23.9092 9.10171 23.8721 9.09458 23.8337 9.08714C23.7967 9.07989 23.7617 9.07146 23.7242 9.07208C23.7157 9.07221 23.7085 9.06827 23.6999 9.06877C23.6697 9.07064 23.6443 9.08464 23.6157 9.09133C23.5867 9.09802 23.5565 9.09514 23.5286 9.10677L21.6299 9.89608C21.3578 10.0091 21.2292 10.3213 21.3422 10.5932C21.4554 10.8656 21.7672 10.9943 22.0393 10.881L23.2475 10.3787L24.2432 26.2951L16.5333 29.1031V18.03C16.5333 17.7354 16.2945 17.4966 16 17.4966C15.7054 17.4966 15.4667 17.7355 15.4667 18.03V29.1031L7.75678 26.2951L8.75241 10.3787L9.96066 10.881C10.233 10.9942 10.545 10.8656 10.6578 10.5932C10.7708 10.3213 10.6422 10.0091 10.37 9.89608L8.47135 9.10677C8.4436 9.09527 8.41347 9.09808 8.3846 9.09146C8.35591 9.08477 8.33035 9.07071 8.29997 9.06877C8.29147 9.06833 8.28422 9.07227 8.27578 9.07221C8.23703 9.07152 8.20091 9.08046 8.16272 9.08821C8.12697 9.09552 8.09228 9.10189 8.05953 9.11589C8.0466 9.12139 8.0321 9.12008 8.01953 9.12658L1.88622 12.3318C1.7261 12.4154 1.61928 12.5748 1.60235 12.7547L0.00234701 29.8154C-0.015653 30.0068 0.070847 30.193 0.22866 30.3029C0.385972 30.4125 0.59166 30.4292 0.764347 30.3459L7.22866 27.2381L15.8175 30.3662C15.9352 30.4095 16.0648 30.4095 16.1826 30.3662L24.7714 27.2381L31.2357 30.3459C31.3089 30.381 31.3881 30.3985 31.4667 30.3985C31.5737 30.3985 31.6805 30.3662 31.7714 30.303C31.9291 30.193 32.0155 30.0068 31.9976 29.8154ZM6.68672 26.3148L1.15222 28.9758L2.6371 13.143L7.67528 10.51L6.68672 26.3148ZM25.313 26.3148L24.3245 10.51L29.3627 13.143L30.8475 28.9758L25.313 26.3148Z" fill="black"/>
<path d="M11.3001 9.16509L15.5412 16.2729C15.6376 16.4343 15.8115 16.533 15.9993 16.533C16.187 16.533 16.361 16.4343 16.4573 16.2729L20.71 9.14478C20.9146 8.76459 21.0516 8.44247 21.1407 8.13047C21.268 7.68491 21.3326 7.22216 21.3326 6.75547C21.3326 6.05728 21.1907 5.37997 20.9105 4.74166C20.6407 4.12734 20.2545 3.57578 19.7634 3.10284C19.2738 2.63122 18.7035 2.26091 18.0688 2.00234C16.7563 1.46797 15.2423 1.46797 13.9298 2.00234C13.2951 2.26091 12.7248 2.63128 12.2355 3.10284C11.7441 3.57578 11.3579 4.12734 11.0881 4.74191C10.808 5.37991 10.666 6.05728 10.666 6.75547C10.666 7.22216 10.7306 7.68491 10.858 8.13072C10.947 8.44241 11.084 8.76453 11.3001 9.16509ZM12.0647 5.17078C12.2783 4.68434 12.5848 4.24709 12.9754 3.87103C13.3671 3.49372 13.8236 3.19734 14.3319 2.99028C14.86 2.77516 15.421 2.66634 15.9993 2.66634C16.5777 2.66634 17.1386 2.77522 17.6668 2.99028C18.1751 3.19728 18.6316 3.49366 19.0235 3.87103C19.4139 4.24709 19.7204 4.68428 19.934 5.17053C20.1543 5.67259 20.266 6.20572 20.266 6.75541C20.266 7.12309 20.2153 7.48716 20.1153 7.83747C20.0478 8.07341 19.9385 8.32809 19.7825 8.61872L15.9993 14.9588L12.2277 8.63903C12.0603 8.32809 11.9509 8.07341 11.8835 7.83772C11.7835 7.48722 11.7327 7.12316 11.7327 6.75541C11.7326 6.20572 11.8444 5.67259 12.0647 5.17078Z" fill="black"/>
<path d="M16.0007 9.60132C17.471 9.60132 18.6674 8.40494 18.6674 6.93463C18.6674 5.46432 17.471 4.26794 16.0007 4.26794C14.5304 4.26794 13.334 5.46432 13.334 6.93463C13.334 8.40494 14.5304 9.60132 16.0007 9.60132ZM16.0007 5.33463C16.883 5.33463 17.6007 6.05232 17.6007 6.93463C17.6007 7.81694 16.883 8.53463 16.0007 8.53463C15.1184 8.53463 14.4007 7.81694 14.4007 6.93463C14.4007 6.05232 15.1184 5.33463 16.0007 5.33463Z" fill="black"/>
</svg>
