<svg width="32" height="32" viewBox="0 0 32 32" fill="none" xmlns="http://www.w3.org/2000/svg">
<path d="M21.6727 20.3636C23.8952 20.3636 25.6969 19.6907 25.6969 18.8606C25.6969 18.0305 23.8952 17.3575 21.6727 17.3575C19.4502 17.3575 17.6484 18.0305 17.6484 18.8606C17.6484 19.6907 19.4502 20.3636 21.6727 20.3636Z" stroke="black" stroke-width="0.8" stroke-miterlimit="10" stroke-linecap="round" stroke-linejoin="round"/>
<path d="M25.6969 18.8606V26.0848C25.6969 26.9091 23.903 27.5879 21.6727 27.5879C19.4424 27.5879 17.6484 26.9091 17.6484 26.0848V18.8606C17.6484 19.6848 19.4424 20.3636 21.6727 20.3636C23.903 20.3636 25.6969 19.6848 25.6969 18.8606Z" stroke="black" stroke-width="0.8" stroke-miterlimit="10" stroke-linecap="round" stroke-linejoin="round"/>
<path d="M31.0306 21.2848C31.0306 22.109 29.2367 22.7878 27.0064 22.7878C26.5215 22.7878 26.0851 22.7393 25.6973 22.6908V19.8787C26.1336 19.8302 26.57 19.7817 27.0064 19.7817C29.2367 19.7817 31.0306 20.4605 31.0306 21.2848Z" stroke="black" stroke-width="0.8" stroke-miterlimit="10" stroke-linecap="round" stroke-linejoin="round"/>
<path d="M31.0308 21.2848V26.0848C31.0308 26.909 29.2368 27.5878 27.0065 27.5878C25.9883 27.5878 25.0671 27.4424 24.3398 27.1999C25.1641 26.909 25.6974 26.5212 25.6974 26.0848V22.6908C26.1338 22.7393 26.5701 22.7878 27.0065 22.7878C29.2368 22.7878 31.0308 22.109 31.0308 21.2848Z" stroke="black" stroke-width="0.8" stroke-miterlimit="10" stroke-linecap="round" stroke-linejoin="round"/>
<path d="M25.6969 21.2848C25.6969 22.109 23.903 22.7878 21.6727 22.7878C19.4424 22.7878 17.6484 22.109 17.6484 21.2848" stroke="black" stroke-width="0.8" stroke-miterlimit="10" stroke-linecap="round" stroke-linejoin="round"/>
<path d="M25.6969 23.7091C25.6969 24.5333 23.903 25.2121 21.6727 25.2121C19.4424 25.2121 17.6484 24.5333 17.6484 23.7091" stroke="black" stroke-width="0.8" stroke-miterlimit="10" stroke-linecap="round" stroke-linejoin="round"/>
<path d="M31.0309 23.7091C31.0309 24.5333 29.237 25.2121 27.0067 25.2121C26.5703 25.2121 26.1825 25.1637 25.7461 25.1637" stroke="black" stroke-width="0.8" stroke-miterlimit="10" stroke-linecap="round" stroke-linejoin="round"/>
<path d="M25.6969 18.8606C25.6969 18.0363 23.903 17.3575 21.6727 17.3575C19.4424 17.3575 17.6484 18.0363 17.6484 18.8606V26.0848C17.6484 26.9091 19.4424 27.5878 21.6727 27.5878C22.6909 27.5878 23.6121 27.4424 24.3393 27.2C25.0666 27.4424 25.9878 27.5878 27.006 27.5878C29.2363 27.5878 31.0303 26.9091 31.0303 26.0848V21.2848C31.0303 20.4606 29.2363 19.7818 27.006 19.7818C26.5696 19.7818 26.1333 19.8303 25.6969 19.8788V18.8606ZM25.6969 18.8606C25.6969 19.0545 25.6 19.2 25.4545 19.3939C25.6 19.2485 25.6969 19.0545 25.6969 18.8606Z" stroke="black" stroke-width="0.8" stroke-miterlimit="10" stroke-linecap="round" stroke-linejoin="round"/>
<path d="M31.029 23.7091C31.029 24.5333 29.2351 25.2121 27.0047 25.2121C26.5684 25.2121 26.1805 25.1637 25.7441 25.1637" stroke="black" stroke-width="0.8" stroke-miterlimit="10" stroke-linecap="round" stroke-linejoin="round"/>
<path d="M17.2112 15.0788L18.8597 16L11.1021 20.5091L10.9081 20.6061L10.6657 20.5576L1.21117 15.0788L0.96875 14.9333L8.92027 10.3273L10.5688 11.2485L17.2112 15.0788Z" stroke="black" stroke-width="0.8" stroke-miterlimit="10" stroke-linecap="round" stroke-linejoin="round"/>
<path d="M29.0415 10.1333L22.4475 13.9636L20.8475 12.9939L14.2051 9.16362L12.5566 8.24241L15.1748 6.73938L18.9082 4.50908L19.1021 4.41211L19.296 4.55756L28.7506 10.0364L29.0415 10.1333Z" stroke="black" stroke-width="0.8" stroke-miterlimit="10" stroke-linecap="round" stroke-linejoin="round"/>
<path d="M17.2117 15.0788L11.2966 18.5212C11.0057 18.3758 10.6663 18.3758 10.3754 18.5212L5.1875 15.5152C5.62386 15.2728 5.62386 14.6425 5.1875 14.4L10.5693 11.297L17.2117 15.0788Z" stroke="black" stroke-width="0.8" stroke-miterlimit="10" stroke-linecap="round" stroke-linejoin="round"/>
<path d="M24.7263 10.7151L20.8475 12.9939L14.2051 9.16359L18.7142 6.54541C19.0051 6.69086 19.3445 6.69086 19.6354 6.54541L24.7263 9.50299C24.2899 9.7939 24.2899 10.4727 24.7263 10.7151Z" stroke="black" stroke-width="0.8" stroke-miterlimit="10" stroke-linecap="round" stroke-linejoin="round"/>
<path d="M22.4472 13.9636L19.9745 15.4182L18.8593 16.0485L17.2108 15.0788L10.5684 11.2485L8.91992 10.3273L12.5563 8.24243L14.1563 9.16364L20.8472 12.9939L22.4472 13.9636Z" stroke="black" stroke-width="0.8" stroke-miterlimit="10" stroke-linecap="round" stroke-linejoin="round"/>
<path d="M20.412 8.92118C19.8787 8.63028 19.0059 8.63028 18.5211 8.92118C17.9878 9.21209 17.9878 9.74543 18.5211 10.0363C19.0544 10.3272 19.9272 10.3272 20.412 10.0363C20.9453 9.69694 20.9453 9.21209 20.412 8.92118Z" stroke="black" stroke-width="0.8" stroke-miterlimit="10" stroke-linecap="round" stroke-linejoin="round"/>
<path d="M11.3925 14.3515C10.8591 14.0606 9.98641 14.0606 9.50156 14.3515C8.96823 14.6424 8.96823 15.1757 9.50156 15.4666C10.0349 15.7575 10.9076 15.7575 11.3925 15.4666C11.8773 15.1757 11.9258 14.6424 11.3925 14.3515Z" stroke="black" stroke-width="0.8" stroke-miterlimit="10" stroke-linecap="round" stroke-linejoin="round"/>
<path d="M0.96875 14.9333V17.2606V17.3091L10.8597 23.0303L16.096 19.9758" stroke="black" stroke-width="0.8" stroke-miterlimit="10" stroke-linecap="round" stroke-linejoin="round"/>
<path d="M23.1758 15.903L29.0424 12.5091V12.4121V10.1333" stroke="black" stroke-width="0.8" stroke-miterlimit="10" stroke-linecap="round" stroke-linejoin="round"/>
<path d="M0.96875 17.2606V17.3091V19.5879L10.8597 25.3091L16.1445 22.2546" stroke="black" stroke-width="0.8" stroke-miterlimit="10" stroke-linecap="round" stroke-linejoin="round"/>
<path d="M25.7441 16.6788L29.0411 14.7879V12.5091V12.4121" stroke="black" stroke-width="0.8" stroke-miterlimit="10" stroke-linecap="round" stroke-linejoin="round"/>
<path d="M0.96875 19.5394V21.8667L10.8597 27.5879L16.193 24.5334" stroke="black" stroke-width="0.8" stroke-miterlimit="10" stroke-linecap="round" stroke-linejoin="round"/>
<path d="M29.0406 14.6909V17.0667L27.0527 18.2303" stroke="black" stroke-width="0.8" stroke-miterlimit="10" stroke-linecap="round" stroke-linejoin="round"/>
<path d="M18.8594 16.2909V16.0485L22.4473 13.9636V15.9515" stroke="black" stroke-width="0.8" stroke-miterlimit="10" stroke-linecap="round" stroke-linejoin="round"/>
</svg>
