<svg width="32" height="32" viewBox="0 0 32 32" fill="none" xmlns="http://www.w3.org/2000/svg">
<g clip-path="url(#clip0_196_1472)">
<path d="M31.4131 4.20913C31.3522 4.08152 31.2431 3.98335 31.1097 3.93595L20.0467 0.0304877C19.7691 -0.0676892 19.4644 0.0781439 19.3662 0.355748L16.8532 7.46667H15.754V5.6534C15.754 5.15704 15.5235 4.68881 15.1303 4.38595C14.7368 4.08309 14.2254 3.97996 13.7454 4.10678L0.930598 7.48438V7.49402C0.698307 7.55235 0.535026 7.76042 0.533203 8.00001V30.4C0.533203 31.2836 1.24961 32 2.1332 32H17.0665C17.9501 32 18.6665 31.2836 18.6665 30.4V25.5607L22.9438 27.0706C23.2217 27.1685 23.5264 27.0229 23.6243 26.745L31.436 4.61668C31.4829 4.48309 31.4746 4.33647 31.4131 4.20913ZM14.0176 5.13543C14.1775 5.09324 14.3483 5.12762 14.4793 5.2284C14.6105 5.32944 14.6874 5.48569 14.6874 5.65131V7.46667H5.17903L14.0176 5.13543ZM17.5998 30.4C17.5998 30.6945 17.361 30.9333 17.0665 30.9333H2.1332C1.83867 30.9333 1.59987 30.6945 1.59987 30.4V8.53334H17.0665C17.361 8.53334 17.5998 8.77214 17.5998 9.06667V30.4ZM21.984 10.5638L22.6665 10.2401L22.9918 10.9206L20.4004 18.2544C20.3535 18.3878 20.3613 18.5344 20.4222 18.662L20.9774 19.8234L20.8058 20.3104L19.748 19.2151C19.6319 19.0937 19.4652 19.0346 19.2985 19.0549L18.6665 19.1349V18.4203L19.1215 18.2026C19.2491 18.1417 19.3472 18.0325 19.3946 17.8992L20.4613 14.8828L21.984 10.5638ZM22.9897 14.1237L24.0725 15.8635L23.8873 16.3878L22.5918 15.2534L22.9897 14.1237ZM18.6665 16.7568V15.2911L19.1912 15.2693L18.6665 16.7568ZM19.5733 14.1862L18.6665 14.2234V13.5135L19.9722 13.0581L19.5733 14.1862ZM22.7957 25.887L18.6665 24.4294V20.2101L19.1663 20.1476L20.6399 21.6721C20.741 21.7752 20.8795 21.8328 21.0238 21.832C21.0618 21.8323 21.0998 21.8281 21.1368 21.8198C21.3175 21.7805 21.4647 21.6505 21.5261 21.4763L22.0595 19.9674C22.1066 19.8341 22.0988 19.6875 22.0376 19.5601L21.4798 18.4L22.2095 16.3333L23.7764 17.7068C23.8735 17.7919 23.9985 17.8391 24.128 17.8391C24.1735 17.8391 24.2188 17.8331 24.2629 17.8213C24.434 17.7766 24.5717 17.65 24.6308 17.4833L25.1642 15.9745C25.2181 15.8216 25.1996 15.6529 25.1139 15.5154L23.4446 12.8336L24.0696 11.0635C24.1168 10.93 24.109 10.7833 24.0478 10.6555L23.3972 9.29506C23.2702 9.02917 22.9517 8.91667 22.6858 9.04376L21.3246 9.69454C21.1972 9.75547 21.0991 9.86459 21.0522 9.99792L20.4264 11.7701L18.6665 12.3841V9.06667C18.6652 8.51173 18.3756 7.99714 17.9017 7.70834L18.7733 5.23673L18.9689 4.6823L20.1957 1.21564L30.2537 4.7659L22.7957 25.887Z" fill="black"/>
<path d="M27.0034 8.14246L27.3584 7.13647L28.2729 7.45913L27.918 8.46512L27.0034 8.14246Z" fill="black"/>
<path d="M19.6885 5.55993L20.0437 4.5542L20.958 4.87712L20.6028 5.88284L19.6885 5.55993Z" fill="black"/>
<path d="M25.1748 7.49683L25.53 6.49084L26.4443 6.81376L26.0891 7.81949L25.1748 7.49683Z" fill="black"/>
<path d="M21.5176 6.20568L21.8728 5.19995L22.7868 5.52287L22.4316 6.5286L21.5176 6.20568Z" fill="black"/>
<path d="M23.3462 6.85082L23.7014 5.84509L24.6157 6.16801L24.2605 7.17374L23.3462 6.85082Z" fill="black"/>
<path d="M9.35432 10.6666C6.40875 10.6666 4.021 13.0544 4.021 16C4.021 18.9455 6.40875 21.3333 9.35432 21.3333C12.2999 21.3333 14.6876 18.9455 14.6876 16C14.6845 13.0559 12.2986 10.67 9.35432 10.6666ZM13.2056 14.1765L12.478 14.0166C12.158 13.946 11.8379 13.8901 11.5147 13.8416C11.4658 13.5184 11.4082 13.1968 11.3395 12.8783L11.1793 12.151C12.0671 12.5737 12.7827 13.2888 13.2056 14.1765ZM5.08766 16C5.0887 15.782 5.10641 15.5643 5.14105 15.3489L6.45979 15.0554C6.66214 15.0106 6.86578 14.9734 7.06995 14.9382C7.01839 15.645 7.01839 16.3549 7.06995 17.0619C6.86578 17.0268 6.66214 16.9893 6.45979 16.9445L5.14105 16.6513C5.10641 16.4359 5.0887 16.2182 5.08766 16ZM8.15224 14.7984C8.95172 14.727 9.75588 14.727 10.5554 14.7984C10.627 15.5979 10.627 16.402 10.5554 17.2015C9.75588 17.2731 8.95172 17.2731 8.15224 17.2015C8.08063 16.402 8.08063 15.5979 8.15224 14.7984ZM11.6363 14.9382C11.8408 14.9734 12.0444 15.0106 12.2465 15.0554L13.5655 15.3489C13.6395 15.7799 13.6395 16.2203 13.5655 16.6513L12.2465 16.9445C12.0444 16.9893 11.8408 17.0268 11.6363 17.0624C11.6882 16.3552 11.6882 15.6453 11.6363 14.9382ZM10.0051 11.7867L10.2983 13.1062C10.3431 13.3083 10.3809 13.5119 10.4163 13.7164C9.70901 13.6645 8.99911 13.6645 8.29182 13.7164C8.32724 13.5119 8.36448 13.3083 8.40979 13.1062L8.70302 11.7867C9.13401 11.7135 9.57411 11.7135 10.0051 11.7867ZM7.53037 12.1471L7.37021 12.8747C7.2999 13.1947 7.24391 13.5148 7.19547 13.838C6.87229 13.8864 6.55068 13.9445 6.23219 14.0127L5.50459 14.1729C5.92802 13.2859 6.64313 12.5713 7.53037 12.1489V12.1471ZM5.50355 17.8218L6.23115 17.982C6.5512 18.0523 6.87099 18.1083 7.19443 18.1567C7.24287 18.4799 7.30094 18.8015 7.36917 19.12L7.52932 19.8473C6.64157 19.4252 5.9262 18.7106 5.5025 17.8234L5.50355 17.8218ZM8.70354 20.2101L8.41031 18.8906C8.365 18.689 8.32776 18.4848 8.29234 18.2809C8.64547 18.3067 9.00016 18.3242 9.35484 18.3242C9.70953 18.3242 10.0632 18.3067 10.4168 18.2809C10.3814 18.4848 10.3436 18.689 10.2989 18.8906L10.0056 20.2101C9.57463 20.2833 9.13453 20.2833 8.70354 20.2101ZM11.1783 19.8497L11.3384 19.1221C11.4093 18.802 11.4647 18.4822 11.5137 18.1588C11.8363 18.1104 12.1585 18.0523 12.477 17.9841L13.2043 17.8239C12.7817 18.7124 12.066 19.4283 11.1778 19.8512L11.1783 19.8497Z" fill="black"/>
<path d="M5.0874 25.6H13.6207V26.6666H5.0874V25.6Z" fill="black"/>
<path d="M6.1543 27.7333H12.5543V28.7999H6.1543V27.7333Z" fill="black"/>
<path d="M8.8208 23.4667H9.88747V24.5333H8.8208V23.4667Z" fill="black"/>
<path d="M6.6875 23.4667H7.75417V24.5333H6.6875V23.4667Z" fill="black"/>
<path d="M10.9541 23.4667H12.0208V24.5333H10.9541V23.4667Z" fill="black"/>
</g>
<defs>
<clipPath id="clip0_196_1472">
<rect width="32" height="32" fill="white"/>
</clipPath>
</defs>
</svg>
