<svg width="32" height="32" viewBox="0 0 32 32" fill="none" xmlns="http://www.w3.org/2000/svg">
<g clip-path="url(#clip0_196_1459)">
<path d="M5.12085 14.0713C4.8584 14.0713 4.64551 14.2839 4.64551 14.5464V25.5222C4.64551 25.7847 4.8584 25.9976 5.12085 25.9976C5.3833 25.9976 5.59619 25.7847 5.59619 25.5222V14.5464C5.59619 14.2839 5.3833 14.0713 5.12085 14.0713Z" fill="black"/>
<path d="M5.12085 8.573C4.8584 8.573 4.64551 8.78564 4.64551 9.0481V12.6453C4.64551 12.9077 4.8584 13.1206 5.12085 13.1206C5.3833 13.1206 5.59619 12.9077 5.59619 12.6453V9.0481C5.59619 8.78564 5.3833 8.573 5.12085 8.573Z" fill="black"/>
<path d="M10.0754 8.573C9.81299 8.573 9.6001 8.78564 9.6001 9.0481V25.5222C9.6001 25.7847 9.81299 25.9976 10.0754 25.9976C10.3379 25.9976 10.5508 25.7847 10.5508 25.5222V9.0481C10.5508 8.78564 10.3379 8.573 10.0754 8.573Z" fill="black"/>
<path d="M15.0298 8.573C14.7673 8.573 14.5547 8.78564 14.5547 9.0481V25.5222C14.5547 25.7847 14.7673 25.9976 15.0298 25.9976C15.2922 25.9976 15.5051 25.7847 15.5051 25.5222V9.0481C15.5051 8.78564 15.2922 8.573 15.0298 8.573Z" fill="black"/>
<path d="M31.5269 22.677C31.7893 22.677 32.002 22.4641 32.002 22.2017V14.384C32.002 12.717 30.6458 11.3606 28.9788 11.3606H27.5679V8.60034H28.0029C28.2654 8.60034 28.478 8.3877 28.478 8.12524C28.478 7.86279 28.2654 7.6499 28.0029 7.6499H20.675C20.4126 7.6499 20.2 7.86279 20.2 8.12524C20.2 8.3877 20.4126 8.60034 20.675 8.60034H21.1101V11.3606H20.0881V8.78052C20.0881 6.65405 18.3582 4.92407 16.2317 4.92407H14.2048V0.950439H14.9373C15.1997 0.950439 15.4124 0.737793 15.4124 0.475342C15.4124 0.212891 15.1997 0 14.9373 0H5.21362C4.95117 0 4.73853 0.212891 4.73853 0.475342C4.73853 0.737793 4.95117 0.950439 5.21362 0.950439H5.94629V4.92407H3.91895C1.79248 4.92407 0.0625 6.65405 0.0625 8.78052V25.79C0.0625 27.7554 1.54077 29.3811 3.4436 29.6162V30.3481C3.4436 31.259 4.18481 32 5.0957 32C6.00659 32 6.74756 31.259 6.74756 30.3481V29.6465H13.4033V30.3481C13.4033 31.259 14.1443 32 15.0552 32C15.9661 32 16.707 31.259 16.707 30.3481V29.6169C17.0186 29.5789 17.3218 29.5024 17.6145 29.3896C18.0488 29.8037 18.6052 30.0906 19.2239 30.1887V30.6379C19.2239 31.3889 19.835 32 20.5859 32C21.3372 32 21.948 31.3889 21.948 30.6379V30.2263H26.7297V30.6379C26.7297 31.3889 27.3408 32 28.0918 32C28.8428 32 29.4539 31.3889 29.4539 30.6379V30.1887C30.8958 29.96 32.002 28.7085 32.002 27.2031V24.1028C32.002 23.8403 31.7893 23.6274 31.5266 23.6274C31.2642 23.6274 31.0515 23.8403 31.0515 24.1028V27.2031C31.0515 28.3459 30.1216 29.2759 28.9785 29.2759H19.6992C18.5564 29.2759 17.6265 28.3459 17.6265 27.2031V14.384C17.6265 13.241 18.5564 12.3113 19.6992 12.3113H28.9785C30.1216 12.3113 31.0515 13.241 31.0515 14.384V22.2017C31.0515 22.4641 31.2642 22.677 31.5269 22.677ZM13.2542 0.950439V4.92383H6.89673V0.950439H13.2542ZM28.5034 30.2263V30.6379C28.5034 30.8647 28.3188 31.0496 28.0918 31.0496C27.865 31.0496 27.6804 30.8647 27.6804 30.6379V30.2263H28.5034ZM20.9978 30.2263V30.6379C20.9978 30.8647 20.813 31.0496 20.5862 31.0496C20.3591 31.0496 20.1746 30.8647 20.1746 30.6379V30.2263H20.9978ZM5.79712 30.3481C5.79712 30.7349 5.48242 31.0496 5.0957 31.0496C4.70898 31.0496 4.39429 30.7349 4.39429 30.3481V29.6465H5.79712V30.3481ZM15.7566 30.3481C15.7566 30.7349 15.4421 31.0496 15.0552 31.0496C14.6685 31.0496 14.3538 30.7349 14.3538 30.3481V29.6465H15.7568V30.3481H15.7566ZM16.676 14.384V27.2031C16.676 27.7024 16.7986 28.1736 17.0139 28.5891C16.7615 28.6597 16.5 28.696 16.2317 28.696H3.91895C2.31665 28.696 1.01294 27.3923 1.01294 25.79V8.78076C1.01294 7.17822 2.31665 5.87476 3.91895 5.87476H16.2317C17.834 5.87476 19.1377 7.17822 19.1377 8.78076V11.4138C17.7383 11.678 16.676 12.9089 16.676 14.384ZM22.0605 11.3606V8.60034H26.6174V11.3606H22.0605Z" fill="black"/>
<path d="M20.1299 14.5859V27.0012C20.1299 27.2637 20.3425 27.4763 20.6052 27.4763C20.8677 27.4763 21.0803 27.2637 21.0803 27.0012V14.5859C21.0803 14.3235 20.8677 14.1106 20.6052 14.1106C20.3425 14.1106 20.1299 14.3235 20.1299 14.5859Z" fill="black"/>
<path d="M23.8638 14.5859V27.0012C23.8638 27.2637 24.0764 27.4763 24.3391 27.4763C24.6016 27.4763 24.8142 27.2637 24.8142 27.0012V14.5859C24.8142 14.3235 24.6016 14.1106 24.3391 14.1106C24.0764 14.1106 23.8638 14.3235 23.8638 14.5859Z" fill="black"/>
<path d="M27.5977 14.5859V27.0012C27.5977 27.2637 27.8105 27.4763 28.073 27.4763C28.3354 27.4763 28.5481 27.2637 28.5481 27.0012V14.5859C28.5481 14.3235 28.3354 14.1106 28.073 14.1106C27.8105 14.1106 27.5977 14.3235 27.5977 14.5859Z" fill="black"/>
</g>
<defs>
<clipPath id="clip0_196_1459">
<rect width="32" height="32" fill="white"/>
</clipPath>
</defs>
</svg>
